<svg width="32px" height="32px" viewBox="0 0 32 32" version="1.1" xmlns="http://www.w3.org/2000/svg" xmlns:xlink="http://www.w3.org/1999/xlink">
    <!-- Generator: Sketch 48.2 (47327) - http://www.bohemiancoding.com/sketch -->
    <desc>Created with Sketch.</desc>
    <defs></defs>
    <g id="Page-1" stroke="none" stroke-width="1" fill="none" fill-rule="evenodd">
        <g id="cao_article_1440" transform="translate(-1344.000000, -336.000000)">
            <g id="Group-6" transform="translate(624.000000, 240.000000)">
                <g id="1">
                    <g id="main_news">
                        <g id="news-copy-12">
                            <g id="info-row" transform="translate(0.000000, 96.000000)">
                                <g id="sharing-row" transform="translate(600.000000, 0.000000)">
                                    <g id="ok" transform="translate(120.000000, 0.000000)">
                                        <rect id="Button" fill="#F09300" x="0" y="0" width="32" height="32" rx="16"></rect>
                                        <path d="M16,16.461713 C13.4711516,16.461713 11.4146852,14.451693 11.4146852,11.9808567 C11.4146852,9.50912377 13.4711516,7.49910377 16,7.5000003 C18.5297656,7.5000003 20.5853148,9.5100203 20.5853148,11.9817532 C20.5853148,14.4525896 18.5288484,16.461713 16,16.461713 Z M16,10.1779351 C14.983691,10.1779351 14.1554175,10.986605 14.1554175,11.9808567 C14.1554175,12.9742118 14.983691,13.7828817 16,13.7828817 C17.0172263,13.7828817 17.8445825,12.9742118 17.8445825,11.9808567 C17.8445825,10.986605 17.0172263,10.1779351 16,10.1779351 Z M17.8023892,19.8873537 L20.2954649,22.3223289 C20.8054539,22.819903 20.8054539,23.6276764 20.2954649,24.126147 C19.7854759,24.6246177 18.9590369,24.6246177 18.4499652,24.126147 L16.0009172,21.7333088 L13.5537038,24.126147 C13.2987093,24.3753823 12.9639144,24.5 12.6300367,24.5 C12.296159,24.5 11.9622813,24.3753823 11.7072868,24.126147 C11.1972978,23.628573 11.1972978,22.8207995 11.7063696,22.3223289 L14.1976108,19.8873537 C13.2904541,19.6856345 12.415401,19.3341948 11.6100587,18.8402068 C11.0000898,18.4654573 10.8166405,17.6774076 11.2009668,17.0812152 C11.5843758,16.4841263 12.3897181,16.3039238 13.0006042,16.6795698 C14.8240901,17.8011287 17.1740754,17.8020252 18.9993958,16.6795698 C19.6093646,16.3039238 20.4156242,16.4841263 20.7990332,17.0812152 C21.1833595,17.676511 20.9999102,18.4645608 20.3899413,18.8402068 C19.584599,19.3341948 18.7095459,19.6856345 17.8023892,19.8873537 Z" id="Combined-Shape" fill="#FFFFFF"></path>
                                    </g>
                                </g>
                            </g>
                        </g>
                    </g>
                </g>
            </g>
        </g>
    </g>
</svg>