
<svg width="32px" height="32px" viewBox="0 0 32 32" version="1.1" xmlns="http://www.w3.org/2000/svg" xmlns:xlink="http://www.w3.org/1999/xlink">
    <!-- Generator: Sketch 48.2 (47327) - http://www.bohemiancoding.com/sketch -->
    <desc>Created with Sketch.</desc>
    <defs></defs>
    <g id="Page-1" stroke="none" stroke-width="1" fill="none" fill-rule="evenodd">
        <g id="cao_article_1440" transform="translate(-1304.000000, -336.000000)">
            <g id="Group-6" transform="translate(624.000000, 240.000000)">
                <g id="1">
                    <g id="main_news">
                        <g id="news-copy-12">
                            <g id="info-row" transform="translate(0.000000, 96.000000)">
                                <g id="sharing-row" transform="translate(600.000000, 0.000000)">
                                    <g id="vk" transform="translate(80.000000, 0.000000)">
                                        <rect id="Button" fill="#2E62D0" x="0" y="0" width="32" height="32" rx="16"></rect>
                                        <path d="M22.6884367,21.4875173 L20.5419717,21.4875173 C20.5419717,21.4875173 20.0900843,21.5998613 19.5252251,21.1504854 C18.7344222,20.5887656 17.9436193,19.240638 17.3787601,19.352982 C16.8139008,19.5776699 16.8139008,20.8134535 16.8139008,20.8134535 C16.8139008,20.8134535 16.8139008,21.0381415 16.700929,21.1504854 C16.5879572,21.2628294 16.2490416,21.2628294 16.2490416,21.2628294 L15.3452669,21.2628294 C15.3452669,21.2628294 13.3117737,21.4875173 11.3912524,19.5776699 C9.3577592,17.5554785 7.55020971,13.3987517 7.55020971,13.3987517 C7.55020971,13.3987517 7.43723786,13.1740638 7.55020971,13.0617198 C7.66318155,12.9493759 8.00209708,12.9493759 8.00209708,12.9493759 L10.2615339,12.9493759 C10.2615339,12.9493759 10.4874776,12.9493759 10.6004495,13.0617198 C10.8263932,13.1740638 10.939365,13.2864078 10.939365,13.2864078 C10.939365,13.2864078 11.2782805,14.1851595 11.8431397,15.0839112 C12.7469145,16.6567268 13.1988019,17.1061026 13.5377174,16.8814147 C13.9896048,16.6567268 13.8766329,14.6345354 13.8766329,14.6345354 C13.8766329,14.6345354 13.8766329,13.8481276 13.6506892,13.5110957 C13.4247456,13.2864078 13.08583,13.1740638 12.9728582,13.1740638 C12.8598863,13.1740638 13.08583,12.8370319 13.3117737,12.7246879 C13.5377174,12.5 14.3285203,12.5 15.1193232,12.5 C15.7971543,12.5 16.0230979,12.5 16.2490416,12.612344 C17.0398445,12.8370319 16.8139008,13.5110957 16.8139008,15.3085992 C16.8139008,15.870319 16.700929,16.6567268 17.1528164,16.8814147 C17.3787601,16.9937587 17.7176756,16.8814147 18.847394,15.0839112 C19.2992814,14.1851595 19.7511688,13.2864078 19.7511688,13.2864078 C19.7511688,13.2864078 19.8641406,13.0617198 19.9771125,13.0617198 C20.0900843,12.9493759 20.316028,13.0617198 20.316028,13.0617198 L22.6884367,13.0617198 C22.6884367,13.0617198 23.3662678,12.9493759 23.4792396,13.2864078 C23.5922114,13.6234397 23.2532959,14.4098474 22.2365493,15.6456311 C20.6549435,17.7801664 20.4289998,17.5554785 21.7846619,18.7912621 C23.0273522,19.9147018 23.3662678,20.4764216 23.3662678,20.5887656 C23.7051833,21.3751734 22.6884367,21.4875173 22.6884367,21.4875173 Z" id="Shape" fill="#FFFFFF"></path>
                                    </g>
                                </g>
                            </g>
                        </g>
                    </g>
                </g>
            </g>
        </g>
    </g>
</svg>